<?xml version="1.0" encoding="UTF-8" standalone="no"?>
<!-- Created with Inkscape (http://www.inkscape.org/) -->

<svg
   xmlns:dc="http://purl.org/dc/elements/1.1/"
   xmlns:cc="http://creativecommons.org/ns#"
   xmlns:rdf="http://www.w3.org/1999/02/22-rdf-syntax-ns#"
   xmlns:svg="http://www.w3.org/2000/svg"
   xmlns="http://www.w3.org/2000/svg"
   xmlns:sodipodi="http://sodipodi.sourceforge.net/DTD/sodipodi-0.dtd"
   xmlns:inkscape="http://www.inkscape.org/namespaces/inkscape"
   width="200"
   height="200"
   viewBox="0 0 52.916665 52.916668"
   version="1.1"
   id="svg8"
   inkscape:version="0.92.2 2405546, 2018-03-11"
   sodipodi:docname="speeach-bubble.svg">
  <defs
     id="defs2" />
  <sodipodi:namedview
     id="base"
     pagecolor="#ffffff"
     bordercolor="#666666"
     borderopacity="1.0"
     inkscape:pageopacity="0.0"
     inkscape:pageshadow="2"
     inkscape:zoom="5.6"
     inkscape:cx="116.76534"
     inkscape:cy="128.99054"
     inkscape:document-units="mm"
     inkscape:current-layer="layer2"
     showgrid="false"
     units="px"
     inkscape:window-width="3768"
     inkscape:window-height="2111"
     inkscape:window-x="0"
     inkscape:window-y="0"
     inkscape:window-maximized="1" />
  <metadata
     id="metadata5">
    <rdf:RDF>
      <cc:Work
         rdf:about="">
        <dc:format>image/svg+xml</dc:format>
        <dc:type
           rdf:resource="http://purl.org/dc/dcmitype/StillImage" />
        <dc:title></dc:title>
      </cc:Work>
    </rdf:RDF>
  </metadata>
  <g
     inkscape:groupmode="layer"
     id="layer2"
     inkscape:label="background"
     style="display:none"
     transform="translate(0,-244.08332)">
    <rect
       style="fill:#a50000;fill-opacity:1;stroke:none;stroke-width:0.26458332;stroke-linejoin:round;stroke-miterlimit:4;stroke-dasharray:none;stroke-opacity:1"
       id="rect8480"
       width="53.152901"
       height="52.774921"
       x="0"
       y="244.17781" />
  </g>
  <g
     inkscape:label="Layer 1"
     inkscape:groupmode="layer"
     id="layer1"
     transform="translate(0,-244.08332)"
     style="display:none">
    <path
       sodipodi:nodetypes="ccccc"
       inkscape:connector-curvature="0"
       id="rect3713"
       d="M 43.391667,253.60832 H 9.525 v 22.48958 h 33.866667 z"
       style="fill:#fdffff;fill-opacity:1;stroke:#feffff;stroke-width:13.22916698;stroke-linejoin:round;stroke-miterlimit:4;stroke-dasharray:none;stroke-opacity:1" />
    <path
       sodipodi:nodetypes="ccc"
       inkscape:connector-curvature="0"
       id="path8477"
       d="m 13.202763,277.20827 v 18.86548 l 18.865338,-18.86548"
       style="fill:#fdffff;fill-opacity:1;stroke:none;stroke-width:0.41308266px;stroke-linecap:butt;stroke-linejoin:miter;stroke-miterlimit:4;stroke-dasharray:none;stroke-opacity:1" />
    <circle
       style="fill:#000000;fill-opacity:1;stroke:none;stroke-width:15.15340805;stroke-linejoin:round;stroke-miterlimit:4;stroke-dasharray:none;stroke-opacity:1"
       id="path8488"
       cx="12.235261"
       cy="265.40555"
       r="5.1954541" />
    <circle
       r="5.1954541"
       cy="265.39374"
       cx="25.430281"
       id="circle8490"
       style="fill:#000000;fill-opacity:1;stroke:none;stroke-width:15.15340805;stroke-linejoin:round;stroke-miterlimit:4;stroke-dasharray:none;stroke-opacity:1" />
    <circle
       style="fill:#000000;fill-opacity:1;stroke:none;stroke-width:15.15340805;stroke-linejoin:round;stroke-miterlimit:4;stroke-dasharray:none;stroke-opacity:1"
       id="circle8492"
       cx="38.992325"
       cy="265.37012"
       r="5.1954541" />
  </g>
  <g
     inkscape:groupmode="layer"
     id="layer3"
     inkscape:label="final">
    <path
       style="color:#000000;font-style:normal;font-variant:normal;font-weight:normal;font-stretch:normal;font-size:medium;line-height:normal;font-family:sans-serif;font-variant-ligatures:normal;font-variant-position:normal;font-variant-caps:normal;font-variant-numeric:normal;font-variant-alternates:normal;font-feature-settings:normal;text-indent:0;text-align:start;text-decoration:none;text-decoration-line:none;text-decoration-style:solid;text-decoration-color:#000000;letter-spacing:normal;word-spacing:normal;text-transform:none;writing-mode:lr-tb;direction:ltr;text-orientation:mixed;dominant-baseline:auto;baseline-shift:baseline;text-anchor:start;white-space:normal;shape-padding:0;clip-rule:nonzero;display:inline;overflow:visible;visibility:visible;opacity:1;isolation:auto;mix-blend-mode:normal;color-interpolation:sRGB;color-interpolation-filters:linearRGB;solid-color:#000000;solid-opacity:1;vector-effect:none;fill:#feffff;fill-opacity:1;fill-rule:nonzero;stroke:none;stroke-width:50;stroke-linecap:butt;stroke-linejoin:round;stroke-miterlimit:4;stroke-dasharray:none;stroke-dashoffset:0;stroke-opacity:1;color-rendering:auto;image-rendering:auto;shape-rendering:auto;text-rendering:auto;enable-background:accumulate"
       d="M 36.84375 7.7148438 C 23.038163 7.7148652 11.843942 18.9034 11.839844 32.708984 L 11.839844 117.71094 C 11.839865 131.51941 23.03528 142.71482 36.84375 142.71484 L 50.742188 142.71484 L 50.742188 193.21094 L 101.23633 142.71484 L 164.8457 142.71484 C 178.65129 142.71069 189.83982 131.51653 189.83984 117.71094 L 189.83984 32.708984 C 189.83575 18.906281 178.64841 7.7189388 164.8457 7.7148438 L 36.84375 7.7148438 z M 148.21484 57.529297 A 19.636362 19.636362 0 0 1 167.84961 77.166016 A 19.636362 19.636362 0 0 1 148.21484 96.802734 A 19.636362 19.636362 0 0 1 128.57812 77.166016 A 19.636362 19.636362 0 0 1 148.21484 57.529297 z M 96.955078 57.619141 A 19.636362 19.636362 0 0 1 116.5918 77.255859 A 19.636362 19.636362 0 0 1 96.955078 96.892578 A 19.636362 19.636362 0 0 1 77.320312 77.255859 A 19.636362 19.636362 0 0 1 96.955078 57.619141 z M 47.083984 57.664062 A 19.636362 19.636362 0 0 1 66.720703 77.300781 A 19.636362 19.636362 0 0 1 47.083984 96.9375 A 19.636362 19.636362 0 0 1 27.449219 77.300781 A 19.636362 19.636362 0 0 1 47.083984 57.664062 z "
       id="rect3713-3"
       transform="scale(0.26458333)" />
  </g>
</svg>
